<svg xmlns="http://www.w3.org/2000/svg" viewBox="0 0 64 64">
  <rect width="64" height="64" rx="14" fill="#2458ff"/>
  <path d="M18 22.5C18 17.8 21.8 14 26.5 14h11C42.2 14 46 17.8 46 22.5v19C46 46.2 42.2 50 37.5 50h-11C21.8 50 18 46.2 18 41.5v-19Z" fill="#fff" opacity=".16"/>
  <path d="M22 24.2C22 20.8 24.8 18 28.2 18h7.6C39.2 18 42 20.8 42 24.2v15.6C42 43.2 39.2 46 35.8 46h-7.6C24.8 46 22 43.2 22 39.8V24.2Z" fill="#fff"/>
  <path d="M27.2 29.1h9.6v3.2h-9.6v-3.2Zm0 6.2h6.7v3.2h-6.7v-3.2Z" fill="#2458ff"/>
</svg>
